<svg width="266" height="266" viewBox="0 0 266 266" fill="none" xmlns="http://www.w3.org/2000/svg">
<g clip-path="url(#clip0_1_121)">
<path d="M0 0H266V266H0V0Z" fill="#F0DB4F"/>
<path d="M244.229 202.559C242.282 190.423 234.368 180.233 210.929 170.725C202.787 166.983 193.71 164.303 191.004 158.133C190.043 154.543 189.917 152.52 190.524 150.346C192.268 143.291 200.688 141.091 207.364 143.114C211.662 144.555 215.733 147.868 218.186 153.152C229.665 145.719 229.64 145.769 237.655 140.662C234.722 136.11 233.155 134.011 231.233 132.065C224.33 124.353 214.924 120.383 199.879 120.686C197.275 121.015 194.645 121.369 192.041 121.698C184.531 123.594 177.375 127.539 173.178 132.823C160.586 147.109 164.177 172.116 179.499 182.407C194.595 193.735 216.77 196.314 219.602 206.909C222.358 219.88 210.069 224.077 197.856 222.586C188.855 220.715 183.849 216.138 178.437 207.819C168.475 213.584 168.475 213.584 158.235 219.476C160.662 224.785 163.216 227.188 167.287 231.789C186.554 251.335 234.773 250.374 243.421 220.79C243.774 219.779 246.101 213.002 244.229 202.559ZM144.606 122.254H119.725C119.725 143.746 119.624 165.087 119.624 186.579C119.624 200.259 120.332 212.8 118.107 216.643C114.466 224.203 105.035 223.268 100.736 221.801C96.3621 219.652 94.137 216.593 91.5579 212.269C90.8499 211.03 90.3189 210.069 90.1416 209.993C83.3908 214.115 76.6647 218.261 69.9135 222.383C73.2767 229.286 78.2323 235.279 84.5789 239.172C94.0608 244.861 106.805 246.606 120.13 243.547C128.803 241.018 136.287 235.784 140.206 227.819C145.87 217.377 144.656 204.734 144.606 190.751C144.732 167.944 144.606 145.137 144.606 122.254Z" fill="#323330"/>
</g>
<defs>
<clipPath id="clip0_1_121">
<rect width="266" height="266" fill="white"/>
</clipPath>
</defs>
</svg>
